# xmcd
#
# Track frame offsets:
#	150
#	21898
#	40536
#	57441
#	77727
#	97586
#	114095
#	137364
#	157133
#	176756
#	193398
#
# Disc length: 2832 seconds
#
# Revision: 0
# Processed by: cddbd v1.4PL0 Copyright (c) Steve Scherf et al.
# Submitted via: AudioConverter v4.05 Copyright (c) Dennis Rebentrost
#
DISCID=840b0e0b
DTITLE=Cezary Makiewicz - Do ko_ca - ycia
DYEAR=2002
DGENRE=Country
TTITLE0=Ale to by_o wczoraj
TTITLE1=Do ko_ca zycia
TTITLE2=Jeste_
TTITLE3=S_o_ce w twych ramionach
TTITLE4=Gdy wiem, - e na mnie czekasz
TTITLE5=Ustrzyki
TTITLE6=Za ka_dym razem
TTITLE7=W p__ drogi
TTITLE8=Wszystkie drogi prowadz_ do Mr_gowa
TTITLE9=Korale - ez
TTITLE10=empty
EXTD=
EXTT0=
EXTT1=
EXTT2=
EXTT3=
EXTT4=
EXTT5=
EXTT6=
EXTT7=
EXTT8=
EXTT9=
EXTT10=
PLAYORDER=
